# xmcd
#
# Track frame offsets: 
#        150
#        12140
#        32233
#        47435
#        65991
#        83000
#        100872
#        120845
#        136995
#        151706
#        175094
#        200845
#        216364
#        236910
#        252259
#        267806
#        283496
#        302789
#        323886
#        337692
#
# Disc length: 4739 seconds
#
# Revision: 0
# Processed by: cddbd v1.5.2PL0 Copyright (c) Steve Scherf et al.
# Submitted via: ExactAudioCopyFreeDBPlugin 1.0
#
DISCID=1b128114
DTITLE=Various Artist - Hip-Hop . Eine musikalische Revolution
DYEAR=2019
DGENRE=No, thanks.
TTITLE0=Juju feat. Henning May - Vermissen
TTITLE1=MoTrip feat. Lary - So wie du bist
TTITLE2=Bausa - Was du Liebe nennst
TTITLE3=Olexesh feat. Edin - Magisch
TTITLE4=Marteria, Yasha and Miss Platnum - Lila Wolken
TTITLE5=Sido feat. Andreas Bourani - Astronaut
TTITLE6=Eko Fresh feat. G-Style - Ich bin jung und brauche das Geld
TTITLE7=Peter Fox - Schwarz zu blau
TTITLE8=KitschKrieg feat. Gringo, Ufo361, Trettmann and Gzuz - Standard
TTITLE9=Kool Savas - Das Urteil
TTITLE10=Samy Deluxe - Weck mich auf
TTITLE11=Absolute Beginner - Hammerhart
TTITLE12=Die Fantastischen Vier - Troy
TTITLE13=Die Atzen (Frauenarzt and Manny Marc) - Disco Pogo (Atzen Musik
TTITLE13=Mix)
TTITLE14=Finch Asozial - Abfahrt
TTITLE15=Beastie Boys - (You Gotta) Fight For Your Right (To Party)
TTITLE16=N.W.A. - Straight Outta Compton
TTITLE17=Public Enemy - Fight The Power
TTITLE18=Run-D.M.C. - It's Tricky
TTITLE19=The Sugarhill Gang - Rapper's Delight
EXTD=
EXTT0=
EXTT1=
EXTT2=
EXTT3=
EXTT4=
EXTT5=
EXTT6=
EXTT7=
EXTT8=
EXTT9=
EXTT10=
EXTT11=
EXTT12=
EXTT13=
EXTT14=
EXTT15=
EXTT16=
EXTT17=
EXTT18=
EXTT19=
PLAYORDER=
